# xmcd CD database file
#
# Track frame offsets:
#	150
#	12525
#	25187
#	41195
#	58777
#	76225
#	89537
#	99680
#	113452
#	131502
#	153245
#	164067
#	179245
#	194080
#	209700
#
# Disc length: 3076 seconds
#
# Revision: 3
# Processed by: cddbd v1.5.2PL0 Copyright (c) Steve Scherf et al.
# Submitted via: CDex 1.51
#
DISCID=dc0c020f
DTITLE=Willie Nelson - The Very Best Of Willie Nelson (2 of 2)
DYEAR=1998
DGENRE=Country
TTITLE0=Whiskey River [Live]
TTITLE1=Forgiving You Was Easy
TTITLE2=To All The Girls I've Loved Before
TTITLE3=Why Do I Have To Choose
TTITLE4=Stardust
TTITLE5=Good Hearted Woman
TTITLE6=What A Wonderful World
TTITLE7=After The Fire Is Gone
TTITLE8=Help Me Make It Through The Night
TTITLE9=City Of New Orleans
TTITLE10=Pretty Paper
TTITLE11=Living In The Promiseland
TTITLE12=Nothing I Can Do About It Now
TTITLE13=Mamas Don't Let Your Babies Grow Up To Be Cowboys
TTITLE14=Uncloudy Day
EXTD=YEAR: 1998
EXTT0=
EXTT1=
EXTT2=
EXTT3=
EXTT4=
EXTT5=
EXTT6=
EXTT7=
EXTT8=
EXTT9=
EXTT10=
EXTT11=
EXTT12=
EXTT13=
EXTT14=
PLAYORDER=
